<svg width="35" height="35" viewBox="0 0 35 35" fill="none" xmlns="http://www.w3.org/2000/svg">
<g clip-path="url(#clip0_8_23)">
<path d="M27.7083 4.375H7.29167C5.67292 4.375 4.375 5.6875 4.375 7.29167V27.7083C4.375 29.3125 5.67292 30.625 7.29167 30.625H27.7083C29.3125 30.625 30.625 29.3125 30.625 27.7083V7.29167C30.625 5.6875 29.3271 4.375 27.7083 4.375ZM27.7083 27.7083H7.29167V10.2083H27.7083V27.7083ZM19.6875 18.9583C19.6875 20.1688 18.7104 21.1458 17.5 21.1458C16.2896 21.1458 15.3125 20.1688 15.3125 18.9583C15.3125 17.7479 16.2896 16.7708 17.5 16.7708C18.7104 16.7708 19.6875 17.7479 19.6875 18.9583ZM17.5 13.125C13.5188 13.125 10.1208 15.5458 8.75 18.9583C10.1208 22.3708 13.5188 24.7917 17.5 24.7917C21.4813 24.7917 24.8792 22.3708 26.25 18.9583C24.8792 15.5458 21.4813 13.125 17.5 13.125ZM17.5 22.6042C15.4875 22.6042 13.8542 20.9708 13.8542 18.9583C13.8542 16.9458 15.4875 15.3125 17.5 15.3125C19.5125 15.3125 21.1458 16.9458 21.1458 18.9583C21.1458 20.9708 19.5125 22.6042 17.5 22.6042Z" fill="black"/>
</g>
<defs>
<clipPath id="clip0_8_23">
<rect width="35" height="35" fill="white"/>
</clipPath>
</defs>
</svg>
